# xmcd
#
# Track frame offsets: 
#        150
#        15206
#        26508
#        43309
#        62719
#        78868
#        100424
#        120358
#        137981
#        149976
#        165834
#        184252
#
# Disc length: 2751 seconds
#
# Revision: 0
# Processed by: cddbd v1.5.2PL0 Copyright (c) Steve Scherf et al.
# Submitted via: ExactAudioCopy v0.99pb4
#
DISCID=9e0abd0c
DTITLE=The Choir - de-plumed
DYEAR=2010
DGENRE=Christian Rock
TTITLE0=Dreams
TTITLE1=15 Doors
TTITLE2=Black Cloud
TTITLE3=Clouds
TTITLE4=To Bid Farewell
TTITLE5=A Sentimental Song
TTITLE6=Love Your Mind
TTITLE7=Spring
TTITLE8=Leprechaun
TTITLE9=Hey Gene
TTITLE10=Enough To Love
TTITLE11=A Friend So Kind
EXTD=
EXTT0=
EXTT1=
EXTT2=
EXTT3=
EXTT4=
EXTT5=
EXTT6=
EXTT7=
EXTT8=
EXTT9=
EXTT10=
EXTT11=
PLAYORDER=
